<svg xmlns="http://www.w3.org/2000/svg" viewBox="0 0 680 420">
<defs><linearGradient id="g" x1="0" y1="0" x2="1" y2="1"><stop stop-color="#00ff9d"/><stop offset="1" stop-color="#00eaff"/></linearGradient><radialGradient id="r" cx="30%" cy="20%" r="70%"><stop stop-color="#00ff9d" stop-opacity=".34"/><stop offset=".55" stop-color="#00eaff" stop-opacity=".16"/><stop offset="1" stop-color="#050914" stop-opacity=".96"/></radialGradient><filter id="glow"><feGaussianBlur stdDeviation="5" result="x"/><feMerge><feMergeNode in="x"/><feMergeNode in="SourceGraphic"/></feMerge></filter></defs>
<rect width="680" height="420" rx="34" fill="#050914"/><rect x="18" y="18" width="644" height="384" rx="30" fill="url(#r)" stroke="url(#g)" stroke-width="2"/>
<g opacity=".16" stroke="#ecfbff"><path d="M60 96H620M60 156H620M60 216H620M60 276H620M60 336H620M120 54V366M240 54V366M360 54V366M480 54V366M600 54V366"/></g>
<circle cx="116" cy="112" r="42" fill="rgba(255,255,255,.08)" stroke="url(#g)" stroke-width="4" filter="url(#glow)"/><text x="116" y="126" text-anchor="middle" fill="#ecfbff" font-family="Arial,sans-serif" font-size="38" font-weight="900">02</text>
<path d="M205 118h310M205 175h210M205 232h275" stroke="url(#g)" stroke-width="10" stroke-linecap="round" opacity=".72"/>
<rect x="78" y="282" width="524" height="58" rx="18" fill="rgba(0,234,255,.08)" stroke="rgba(190,240,255,.22)"/>
<text x="340" y="82" text-anchor="middle" fill="#ecfbff" font-family="Arial,sans-serif" font-size="30" font-weight="900">规划</text>
<text x="340" y="318" text-anchor="middle" fill="#b9c7d8" font-family="Arial,sans-serif" font-size="22" font-weight="700">拆解选题 / 脚本 / 镜头</text>
</svg>