<svg xmlns="http://www.w3.org/2000/svg" viewBox="0 0 560 360" role="img" aria-label="PRODUCT SHOT SYSTEM">
<defs>
  <radialGradient id="r" cx="30%" cy="20%" r="80%"><stop offset="0" stop-color="#00eaff" stop-opacity=".42"/><stop offset=".48" stop-color="#8b5cff" stop-opacity=".18"/><stop offset="1" stop-color="#020817" stop-opacity="1"/></radialGradient>
  <linearGradient id="g" x1="0" y1="0" x2="1" y2="1"><stop offset="0" stop-color="#00eaff"/><stop offset="1" stop-color="#8b5cff"/></linearGradient>
  <filter id="glow"><feGaussianBlur stdDeviation="5" result="b"/><feMerge><feMergeNode in="b"/><feMergeNode in="SourceGraphic"/></feMerge></filter>
</defs>
<rect width="560" height="360" rx="34" fill="url(#r)"/>
<path d="M0 90H560M0 180H560M0 270H560M90 0V360M180 0V360M270 0V360M360 0V360M450 0V360" stroke="white" stroke-opacity=".055"/>
<path d="M34 34h92M34 34v70M526 326h-92M526 326v-70" stroke="url(#g)" stroke-width="2" opacity=".9"/>
<g filter="url(#glow)"><rect x="118" y="88" width="246" height="142" rx="28" fill="rgba(255,255,255,.055)" stroke="#00eaff" stroke-width="2"/><circle cx="232" cy="159" r="45" fill="none" stroke="#8b5cff" stroke-width="4"/><circle cx="232" cy="159" r="18" fill="#00eaff" opacity=".22"/><path d="M365 132l78-44v144l-78-42z" fill="rgba(255,255,255,.045)" stroke="#00eaff" stroke-width="2"/></g>
<text x="36" y="302" fill="white" font-family="Inter,Arial,sans-serif" font-size="30" font-weight="800" letter-spacing="3">PRODUCT</text>
<text x="38" y="330" fill="#00eaff" font-family="ui-monospace,Menlo,monospace" font-size="14" font-weight="700" letter-spacing="4">SHOT SYSTEM</text>
<circle cx="492" cy="58" r="6" fill="#00eaff"/><circle cx="514" cy="58" r="6" fill="#8b5cff"/><circle cx="470" cy="58" r="6" fill="white" opacity=".45"/>
</svg>