<svg xmlns="http://www.w3.org/2000/svg" viewBox="0 0 560 360" role="img" aria-label="EDIT TIMELINE">
<defs>
  <radialGradient id="r" cx="30%" cy="20%" r="80%"><stop offset="0" stop-color="#ffb300" stop-opacity=".42"/><stop offset=".48" stop-color="#ff355e" stop-opacity=".18"/><stop offset="1" stop-color="#020817" stop-opacity="1"/></radialGradient>
  <linearGradient id="g" x1="0" y1="0" x2="1" y2="1"><stop offset="0" stop-color="#ffb300"/><stop offset="1" stop-color="#ff355e"/></linearGradient>
  <filter id="glow"><feGaussianBlur stdDeviation="5" result="b"/><feMerge><feMergeNode in="b"/><feMergeNode in="SourceGraphic"/></feMerge></filter>
</defs>
<rect width="560" height="360" rx="34" fill="url(#r)"/>
<path d="M0 90H560M0 180H560M0 270H560M90 0V360M180 0V360M270 0V360M360 0V360M450 0V360" stroke="white" stroke-opacity=".055"/>
<path d="M34 34h92M34 34v70M526 326h-92M526 326v-70" stroke="url(#g)" stroke-width="2" opacity=".9"/>
<g filter="url(#glow)"><path d="M92 128h392M92 204h392" stroke="#ffb300" stroke-width="2" opacity=".55"/><rect x="126" y="104" width="86" height="48" rx="14" fill="#ffb300" opacity=".32"/><rect x="230" y="180" width="136" height="48" rx="14" fill="#ff355e" opacity=".35"/><rect x="384" y="104" width="72" height="48" rx="14" fill="#ffb300" opacity=".42"/><path d="M256 150l46 30-46 30z" fill="white" opacity=".82"/></g>
<text x="36" y="302" fill="white" font-family="Inter,Arial,sans-serif" font-size="30" font-weight="800" letter-spacing="3">EDIT</text>
<text x="38" y="330" fill="#ffb300" font-family="ui-monospace,Menlo,monospace" font-size="14" font-weight="700" letter-spacing="4">TIMELINE</text>
<circle cx="492" cy="58" r="6" fill="#ffb300"/><circle cx="514" cy="58" r="6" fill="#ff355e"/><circle cx="470" cy="58" r="6" fill="white" opacity=".45"/>
</svg>