<svg xmlns="http://www.w3.org/2000/svg" viewBox="0 0 920 420"><defs><linearGradient id="g" x1="0" x2="1"><stop stop-color="#8b5cff"/><stop offset="1" stop-color="#00ff9d"/></linearGradient><filter id="glow"><feGaussianBlur stdDeviation="8" result="blur"/><feMerge><feMergeNode in="blur"/><feMergeNode in="SourceGraphic"/></feMerge></filter></defs><rect width="920" height="420" rx="38" fill="#050914"/><g opacity=".16"><path d="M0 0 V420" stroke="#fff"/><path d="M44 0 V420" stroke="#fff"/><path d="M88 0 V420" stroke="#fff"/><path d="M132 0 V420" stroke="#fff"/><path d="M176 0 V420" stroke="#fff"/><path d="M220 0 V420" stroke="#fff"/><path d="M264 0 V420" stroke="#fff"/><path d="M308 0 V420" stroke="#fff"/><path d="M352 0 V420" stroke="#fff"/><path d="M396 0 V420" stroke="#fff"/><path d="M440 0 V420" stroke="#fff"/><path d="M484 0 V420" stroke="#fff"/><path d="M528 0 V420" stroke="#fff"/><path d="M572 0 V420" stroke="#fff"/><path d="M616 0 V420" stroke="#fff"/><path d="M660 0 V420" stroke="#fff"/><path d="M704 0 V420" stroke="#fff"/><path d="M748 0 V420" stroke="#fff"/><path d="M792 0 V420" stroke="#fff"/><path d="M836 0 V420" stroke="#fff"/><path d="M880 0 V420" stroke="#fff"/><path d="M924 0 V420" stroke="#fff"/><path d="M0 0 H920" stroke="#fff"/><path d="M0 44 H920" stroke="#fff"/><path d="M0 88 H920" stroke="#fff"/><path d="M0 132 H920" stroke="#fff"/><path d="M0 176 H920" stroke="#fff"/><path d="M0 220 H920" stroke="#fff"/><path d="M0 264 H920" stroke="#fff"/><path d="M0 308 H920" stroke="#fff"/><path d="M0 352 H920" stroke="#fff"/><path d="M0 396 H920" stroke="#fff"/></g><path d="M70 230 H850" stroke="url(#g)" stroke-width="3" filter="url(#glow)"/><text x="56" y="72" font-size="30" font-weight="900" fill="#fff">账号定位优化</text><text x="56" y="110" font-size="16" fill="#9fb1c5">统一执行流程图 · 可替换真实项目截图</text><g transform="translate(100 230)"><circle r="34" fill="rgba(255,255,255,.08)" stroke="#8b5cff" stroke-width="2"/><text y="6" text-anchor="middle" font-size="18" font-weight="900" fill="#fff">01</text><text y="66" text-anchor="middle" font-size="16" fill="#dffcff">需求分析</text></g><g transform="translate(270 230)"><circle r="34" fill="rgba(255,255,255,.08)" stroke="#00ff9d" stroke-width="2"/><text y="6" text-anchor="middle" font-size="18" font-weight="900" fill="#fff">02</text><text y="66" text-anchor="middle" font-size="16" fill="#dffcff">结构规划</text></g><g transform="translate(440 230)"><circle r="34" fill="rgba(255,255,255,.08)" stroke="#8b5cff" stroke-width="2"/><text y="6" text-anchor="middle" font-size="18" font-weight="900" fill="#fff">03</text><text y="66" text-anchor="middle" font-size="16" fill="#dffcff">素材整理</text></g><g transform="translate(610 230)"><circle r="34" fill="rgba(255,255,255,.08)" stroke="#00ff9d" stroke-width="2"/><text y="6" text-anchor="middle" font-size="18" font-weight="900" fill="#fff">04</text><text y="66" text-anchor="middle" font-size="16" fill="#dffcff">执行制作</text></g><g transform="translate(780 230)"><circle r="34" fill="rgba(255,255,255,.08)" stroke="#8b5cff" stroke-width="2"/><text y="6" text-anchor="middle" font-size="18" font-weight="900" fill="#fff">05</text><text y="66" text-anchor="middle" font-size="16" fill="#dffcff">交付复盘</text></g></svg>